<svg xmlns="http://www.w3.org/2000/svg" xmlns:xlink="http://www.w3.org/1999/xlink" viewBox="0 0 150 40"><path d="M 107.23 10.23 L 100.561 10.23 L 100.561 32.98 L 107.23 32.98 Z" fill="rgb(255,253,249)"></path><path d="M 103.966 7.5 C 104.465 7.515 104.963 7.429 105.426 7.247 C 105.89 7.064 106.31 6.79 106.662 6.44 C 107.006 6.082 107.272 5.659 107.447 5.197 C 107.621 4.735 107.699 4.243 107.676 3.75 C 107.699 3.259 107.618 2.769 107.439 2.311 C 107.258 1.853 106.983 1.437 106.632 1.09 C 106.28 0.743 105.858 0.472 105.394 0.294 C 104.93 0.117 104.433 0.037 103.936 0.06 C 103.436 0.037 102.938 0.114 102.469 0.286 C 102.001 0.458 101.572 0.721 101.209 1.06 C 100.852 1.405 100.572 1.82 100.387 2.278 C 100.202 2.736 100.116 3.227 100.135 3.72 C 100.117 4.217 100.203 4.713 100.388 5.175 C 100.573 5.638 100.853 6.059 101.209 6.41 C 101.567 6.77 101.998 7.052 102.472 7.24 C 102.947 7.428 103.455 7.516 103.966 7.5 Z" fill="rgb(255,253,249)"></path><path d="M 115.804 32.1 C 117.734 33.143 119.909 33.664 122.108 33.61 C 123.899 33.666 125.684 33.37 127.358 32.74 C 128.64 32.249 129.779 31.452 130.672 30.42 C 131.487 29.413 132.078 28.248 132.405 27 L 126.659 25.42 C 126.395 26.233 125.908 26.956 125.25 27.51 C 124.378 28.159 123.299 28.476 122.209 28.4 C 121.451 28.456 120.69 28.336 119.987 28.052 C 119.283 27.767 118.656 27.325 118.155 26.76 C 117.35 25.636 116.904 24.298 116.878 22.92 L 132.679 22.92 C 132.735 22.459 132.765 21.995 132.77 21.53 L 132.77 20.28 C 132.81 18.377 132.411 16.489 131.605 14.76 C 130.849 13.186 129.625 11.875 128.098 11 C 126.301 10.024 124.269 9.551 122.22 9.63 C 118.49 9.63 115.571 10.677 113.463 12.77 C 111.345 14.87 110.301 17.77 110.301 21.44 C 110.248 23.666 110.738 25.871 111.73 27.87 C 112.648 29.637 114.062 31.106 115.804 32.1 Z M 122.007 14.65 C 124.865 14.65 126.416 16.217 126.659 19.35 L 116.959 19.35 C 117.067 18.245 117.465 17.187 118.115 16.28 C 118.588 15.726 119.187 15.29 119.864 15.007 C 120.54 14.724 121.274 14.602 122.007 14.65 Z" fill="rgb(255,253,249)"></path><path d="M 142.439 21.32 C 142.35 20.109 142.71 18.908 143.453 17.94 C 144.142 17.15 145.48 16.76 147.314 16.76 L 149.848 16.76 L 149.848 10.23 L 148.52 10.23 C 147.672 10.198 146.828 10.363 146.055 10.71 C 145.283 11.057 144.604 11.578 144.071 12.23 C 143.327 13.216 142.796 14.343 142.51 15.54 L 142.216 15.54 L 141.466 10.26 L 135.78 10.26 L 135.78 33 L 142.439 33 Z" fill="rgb(255,253,249)"></path><path d="M 26.757 27.42 L 26.757 33 L 47.868 33 L 47.868 27.44 L 35.341 27.44 L 35.159 26.9 L 47.676 15.8 L 47.676 10.23 L 27.142 10.23 L 27.142 15.8 L 38.919 15.8 L 39.122 16.36 Z" fill="rgb(255,253,249)"></path><path d="M 57.02 17.62 C 57.192 16.871 57.631 16.207 58.257 15.75 C 58.991 15.302 59.847 15.086 60.709 15.13 C 61.215 15.088 61.724 15.156 62.2 15.329 C 62.676 15.501 63.109 15.775 63.466 16.13 C 64.082 16.936 64.384 17.933 64.318 18.94 L 64.318 19.94 L 58.328 19.94 C 55.28 19.94 53.091 20.58 51.76 21.86 C 51.089 22.508 50.561 23.288 50.213 24.149 C 49.863 25.01 49.7 25.933 49.733 26.86 C 49.657 27.791 49.8 28.727 50.152 29.595 C 50.503 30.462 51.054 31.237 51.76 31.86 C 53.295 33.005 55.189 33.582 57.111 33.49 C 58.113 33.526 59.111 33.343 60.033 32.955 C 60.954 32.566 61.777 31.98 62.443 31.24 C 63.193 30.38 63.767 29.385 64.135 28.31 L 64.51 28.31 L 65.24 33.01 L 70.875 33.01 L 70.875 18.87 C 71.035 16.398 70.197 13.964 68.544 12.1 C 66.983 10.5 64.49 9.7 60.953 9.7 C 59.139 9.65 57.332 9.945 55.632 10.57 C 54.326 11.062 53.186 11.904 52.338 13 C 51.531 14.1 51.006 15.376 50.807 16.72 Z M 59.453 28.18 C 58.56 28.273 57.663 28.034 56.939 27.51 C 56.497 27.055 56.25 26.45 56.25 25.82 C 56.25 25.19 56.497 24.584 56.939 24.13 C 57.459 23.674 58.14 23.44 58.834 23.48 L 64.338 23.48 L 64.338 24.25 C 64.35 24.791 64.235 25.328 64.003 25.819 C 63.771 26.309 63.428 26.741 63 27.08 C 61.986 27.862 60.718 28.254 59.432 28.18 Z" fill="rgb(255,253,249)"></path><path d="M 81.294 28.28 L 81.629 28.28 C 81.825 28.842 82.069 29.388 82.358 29.91 C 83.001 31.124 83.992 32.126 85.206 32.79 C 86.355 33.376 87.632 33.675 88.926 33.66 C 90.179 33.71 91.425 33.44 92.542 32.876 C 93.659 32.312 94.609 31.473 95.301 30.44 C 96.791 28.3 97.541 25.3 97.541 21.44 C 97.541 17.58 96.811 14.83 95.351 12.73 C 94.63 11.699 93.651 10.868 92.51 10.318 C 91.368 9.768 90.103 9.517 88.835 9.59 C 87.841 9.555 86.851 9.727 85.93 10.094 C 85.008 10.461 84.174 11.015 83.483 11.72 C 82.497 12.805 81.766 14.093 81.345 15.49 L 81.071 15.49 L 80.321 10.21 L 74.635 10.21 L 74.635 39.49 L 81.304 39.49 Z M 86.159 15.51 C 86.858 15.449 87.561 15.563 88.204 15.841 C 88.847 16.119 89.409 16.552 89.838 17.1 C 90.674 18.417 91.075 19.958 90.983 21.51 C 91.079 23.119 90.68 24.719 89.838 26.1 C 89.421 26.657 88.868 27.101 88.23 27.39 C 87.591 27.678 86.889 27.802 86.189 27.75 C 85.506 27.783 84.825 27.654 84.202 27.373 C 83.58 27.093 83.035 26.67 82.612 26.14 C 81.687 24.864 81.233 23.315 81.324 21.75 L 81.324 21.32 C 81.214 19.774 81.671 18.241 82.612 17 C 83.052 16.506 83.6 16.115 84.214 15.857 C 84.828 15.599 85.492 15.481 86.159 15.51 Z" fill="rgb(255,253,249)"></path><path d="M 23.057 27.42 L 0 27.42 L 0 32.99 L 23.057 32.99 Z" fill="rgb(255,253,249)"></path></svg>